# xmcd
#
# Track frame offsets: 
#        150
#        3386
#        14223
#        21225
#        31784
#        42561
#        51782
#        58926
#        70215
#        78332
#        84273
#        90965
#        99867
#        105971
#        114529
#        123853
#        125760
#        135045
#        144059
#        152244
#        158449
#        165155
#        175513
#        185209
#        190584
#        197656
#
# Disc length: 2744 seconds
#
# Revision: 0
# Processed by: cddbd v1.5.2PL0 Copyright (c) Steve Scherf et al.
# Submitted via: ExactAudioCopy v1.1
#
DISCID=390ab61a
DTITLE=Don Reno and Red Smiley_7.17.1957 - Reno and Smiley_''Live 57''
DYEAR=2015
DGENRE=Bluegrass
TTITLE0=Soldiers Joy
TTITLE1=Sweethearts In Heaven
TTITLE2=Cumberland Gap
TTITLE3=Orange Blossom Special
TTITLE4=I'm The Talk Of The Town
TTITLE5=They Have Gone Home
TTITLE6=Jesus Is Waiting
TTITLE7=My Mother's Bible
TTITLE8=He Will Set Your Fields On Fire
TTITLE9=I Walk The Line
TTITLE10=Down Yonder
TTITLE11=Sawing On The Strings
TTITLE12=Sally Goodin
TTITLE13=I'm The Biggest Liar In Town
TTITLE14=When You And I Were Young Maggie
TTITLE15=Intro Instrumental
TTITLE16=Bonaparte's Retreat
TTITLE17=Double Banjo Blues
TTITLE18=Let's Live For Tonight
TTITLE19=That's Alright Mama
TTITLE20=Limehouse Blues
TTITLE21=The Old Country Church
TTITLE22=Drifting In With The Tide
TTITLE23=BIlly In The Low Ground
TTITLE24=Springtime In Glory
TTITLE25=Lonesome And Blue
EXTD=
EXTT0=
EXTT1=
EXTT2=
EXTT3=
EXTT4=
EXTT5=
EXTT6=
EXTT7=
EXTT8=
EXTT9=
EXTT10=
EXTT11=
EXTT12=
EXTT13=
EXTT14=
EXTT15=
EXTT16=
EXTT17=
EXTT18=
EXTT19=
EXTT20=
EXTT21=
EXTT22=
EXTT23=
EXTT24=
EXTT25=
PLAYORDER=
